Another Fine Release Brought to you from - IMAGiNE 





******************************************************************************************************************** 

Unknown 2011 TS AC3 XViD -IMAGiNE

********************************************************************************************************************



Ripper ...........:IMAGiNE IMDB Rating.......:8.0/10 

Video Codec.......:XVID Release Date......:21/02/11

Audio Codec.......:AC-3 Theatre Date......:18/02/11

Audio Bitrate.....:128 Runtime...........:1h 47mn

Subtitles.........:yes Language..........:ENGLISH

Resolution........:720 x 304 IMDb URL.......... http://www.imdb.com/title/tt1401152/





DETAILS:



Video

ID : 0

Format : MPEG-4 Visual

Format profile : Advanced Simple@L5

Format settings, BVOP : Yes

Format settings, QPel : No

Format settings, GMC : No warppoints

Format settings, Matrix : Default (MPEG)

Muxing mode : Packed bitstream

Codec ID : XVID

Codec ID/Hint : XviD

Duration : 1h 47mn

Bit rate : 1 696 Kbps

Width : 720 pixels

Height : 304 pixels

Display aspect ratio : 2.35:1

Frame rate : 25.000 fps

Color space : YUV

Chroma subsampling : 4:2:0

Bit depth : 8 bits

Scan type : Progressive

Bits/(Pixel*Frame) : 0.310

Stream size : 1.28 GiB (92%)

Writing library : XviD 1.2.1 (UTC 2008-12-04)



Audio

ID : 1

Format : AC-3

Format/Info : Audio Coding 3

Mode extension : CM (complete main)

Codec ID : 2000

Duration : 1h 47mn

Bit rate mode : Constant

Bit rate : 128 Kbps

Channel(s) : 2 channels

Channel positions : Front: L R

Sampling rate : 48.0 KHz

Bit depth : 16 bits

Stream size : 98.7 MiB (7%)

Alignment : Aligned on interleaves

Interleave, duration : 40 ms (1.00 video frame)

Interleave, preload duration : 512 ms





SOURCES:



VIDEO: elektri4ka...Thanks 

AUDIO: Thanks matey 



NOTES:



IMAGiNE bringing you another release.......... Unknown 2011







Here we are with a nice encode of this one for you all. Now for the video we just made a script

containing white balance,resize, rgb eq, sharpness, chroma, brightness, contrast ect. With the audio

it was just a matter of syncing it to the video.

FYI English hardcode subs for non english speaking parts...

Anyway enjoy folks ....








================================== 
http://thepiratebay.org/user/hiest
==================================








Screenshots:



